<svg id="SvgjsSvg1353" width="288" height="288" xmlns="http://www.w3.org/2000/svg" version="1.1" xmlns:xlink="http://www.w3.org/1999/xlink" xmlns:svgjs="http://svgjs.com/svgjs"><circle id="SvgjsCircle1359" r="144" cx="144" cy="144" fill="#121212" transform="matrix(0.916700005531311,0,0,0.916700005531311,11.995199203491211,11.995199203491211)"></circle><defs id="SvgjsDefs1354"></defs><g id="SvgjsG1355" transform="matrix(0.4652000069618225,0,0,0.4652000069618225,77.01119995117188,77.3979721069336)"><svg xmlns="http://www.w3.org/2000/svg" width="288" height="288" viewBox="0 0 1792 1792"><path d="M1760 896q0 176-68.5 336t-184 275.5-275.5 184-336 68.5-336-68.5-275.5-184-184-275.5-68.5-336q0-213 97-398.5t265-305.5 374-151v228q-221 45-366.5 221t-145.5 406q0 130 51 248.5t136.5 204 204 136.5 248.5 51 248.5-51 204-136.5 136.5-204 51-248.5q0-230-145.5-406t-366.5-221v-228q206 31 374 151t265 305.5 97 398.5z" fill="#fff7f7" class="color000 svgShape"></path></svg></g></svg>