<svg id="SvgjsSvg1048" width="288" height="288" xmlns="http://www.w3.org/2000/svg" version="1.1" xmlns:xlink="http://www.w3.org/1999/xlink" xmlns:svgjs="http://svgjs.com/svgjs"><circle id="SvgjsCircle1058" r="144" cx="144" cy="144" fill="#000000" transform="matrix(0.916700005531311,0,0,0.916700005531311,11.995199203491211,11.995199203491211)"></circle><defs id="SvgjsDefs1049"></defs><g id="SvgjsG1050" transform="matrix(0.4652000069618225,0,0,0.4652000069618225,77.03044891357422,77.01119995117188)"><svg xmlns="http://www.w3.org/2000/svg" data-name="Layer 2" viewBox="0 0 48 48" width="288" height="288"><path d="M2.4 13.231V8.81A3.231 3.231 0 0 1 5.619 5.584H15.862a4.45 4.45 0 0 0 4.445-4.446V0H19.079V1.138a3.218 3.218 0 0 1-3.217 3.218H5.619A4.457 4.457 0 0 0 1.173 8.81v5.461a3.075 3.075 0 0 1 .311-.352A4.076 4.076 0 0 1 2.4 13.231zM27.021 12.625H41.387a1.139 1.139 0 0 0 .987-.57L46.205 5.4a1.761 1.761 0 0 0-3.046-1.769l-2.83 4.724a1.615 1.615 0 0 1-1.387.786H33.817L35.6 6.6a2.06 2.06 0 0 0-3.3-2.464L29.117 8.147a2.366 2.366 0 0 1-1.883.917l-1.113-.009a6.051 6.051 0 0 1 .917 3.21C27.038 12.388 27.029 12.5 27.021 12.625zM7.183 28.01a4.006 4.006 0 0 1-1.728-.385L8.026 32.9l2.808-4.887z" fill="#ffffff" class="color000 svgShape"></path><path d="M43.814,28.976l2.1-3.455H39.352a6.31,6.31,0,0,0,5.387-3.038l2.1-3.463H40.588a7.458,7.458,0,0,0-3.611-5.232,1.5,1.5,0,0,0-.728-.18H26.882a6.076,6.076,0,0,1-11.544.982L7.191,13.444a3.768,3.768,0,0,1,.6.491,4.459,4.459,0,0,1-.025,6.3,4.741,4.741,0,0,1-1.015.736L17.1,23.1a7.469,7.469,0,0,0,4.757-.819l5.273-2.9a.5.5,0,0,1,.5.016.47.47,0,0,1,.221.442l-.188,3.439a5.683,5.683,0,0,1-.7,2.448l2-1.072a.483.483,0,0,1,.492.024.474.474,0,0,1,.229.434l-.188,3.439a5.9,5.9,0,0,1-3.079,4.839l-.442.229-.459-.868.443-.229A4.895,4.895,0,0,0,28.5,28.5l.139-2.563-4.052,2.17-.7.368-.467-.859.1-.058.6-.319a4.895,4.895,0,0,0,2.563-4.02l.139-2.555-4.5,2.473a8.425,8.425,0,0,1-5.4.925L4.555,21.525a4.378,4.378,0,0,1-2.448-.778l.2.4L4.268,25.2a3.239,3.239,0,0,0,2.915,1.826H14.9l5.952,2.194.344.131.581.213a3.011,3.011,0,0,1,1.941,3.193A3.158,3.158,0,0,1,22.076,35.1l-.115.065-.032.025L11.891,41.077l1.6,2.538A3.146,3.146,0,0,0,17,44.968h0l.005,0a3.14,3.14,0,0,0,.608-.235l.007,0,.2-.107L19.839,48l1.058-.624L18.9,44.048l1.887-1L22.8,46.4l1.058-.623-1.977-3.3,1.886-1,1.989,3.32,1.058-.624-1.96-3.27,1.5-.794h-.006L29.42,38.49h7.958a6.3,6.3,0,0,0,5.388-3.03l2.1-3.455H38.418A6.317,6.317,0,0,0,43.814,28.976Z" fill="#ffffff" class="color000 svgShape"></path><polygon points="9.303 35.837 11.457 40.193 15.919 37.573 9.303 35.837" fill="#ffffff" class="color000 svgShape"></polygon><path d="M15.853,12.265a5.1,5.1,0,1,0,5.1-5.109A5.113,5.113,0,0,0,15.853,12.265Zm5.1-2.931a2.927,2.927,0,1,1-2.923,2.931A2.933,2.933,0,0,1,20.954,9.334Z" fill="#ffffff" class="color000 svgShape"></path><path d="M20.954 14.205a1.945 1.945 0 1 0-1.94-1.94A1.946 1.946 0 0 0 20.954 14.205zM4.62 20.551h.008a3.472 3.472 0 0 0 .009-6.943H4.628a3.472 3.472 0 0 0-.008 6.943z" fill="#ffffff" class="color000 svgShape"></path></svg></g></svg>