<svg id="SvgjsSvg1066" width="288" height="288" xmlns="http://www.w3.org/2000/svg" version="1.1" xmlns:xlink="http://www.w3.org/1999/xlink" xmlns:svgjs="http://svgjs.com/svgjs"><circle id="SvgjsCircle1242" r="144" cx="144" cy="144" fill="#000000" transform="matrix(0.916700005531311,0,0,0.916700005531311,11.995199203491211,11.995199203491211)"></circle><defs id="SvgjsDefs1067"></defs><g id="SvgjsG1068" transform="matrix(0.4652000069618225,0,0,0.4652000069618225,78.20843505859375,77.01119995117188)"><svg xmlns="http://www.w3.org/2000/svg" enable-background="new 0 0 64 64" viewBox="0 0 64 64" width="288" height="288"><linearGradient id="a" x1="4.315" x2="50.75" y1="1.815" y2="48.25" gradientUnits="userSpaceOnUse"><stop offset=".209" stop-color="#ffffff" class="stopColorfbb040 svgShape"></stop><stop offset=".405" stop-color="#ffffff" class="stopColorf18a3c svgShape"></stop><stop offset=".405" stop-color="#ffffff" class="stopColorf18a3c svgShape"></stop><stop offset=".52" stop-color="#ffffff" class="stopColoref773c svgShape"></stop><stop offset=".639" stop-color="#fbfbfb" class="stopColored6c3c svgShape"></stop><stop offset=".765" stop-color="#ffffff" class="stopColored683c svgShape"></stop><stop offset=".905" stop-color="#aba2a2" class="stopColore93e3a svgShape"></stop></linearGradient><path fill="url(#a)" d="M54,51c-0.553,0-1,0.447-1,1s0.447,1,1,1h1c0.553,0,1-0.447,1-1s-0.447-1-1-1H54z"></path><linearGradient id="b" x1="6.815" x2="53.25" y1="-.685" y2="45.75" gradientUnits="userSpaceOnUse"><stop offset=".209" stop-color="#ffffff" class="stopColorfbb040 svgShape"></stop><stop offset=".405" stop-color="#ffffff" class="stopColorf18a3c svgShape"></stop><stop offset=".405" stop-color="#ffffff" class="stopColorf18a3c svgShape"></stop><stop offset=".52" stop-color="#ffffff" class="stopColoref773c svgShape"></stop><stop offset=".639" stop-color="#fbfbfb" class="stopColored6c3c svgShape"></stop><stop offset=".765" stop-color="#ffffff" class="stopColored683c svgShape"></stop><stop offset=".905" stop-color="#aba2a2" class="stopColore93e3a svgShape"></stop></linearGradient><path fill="url(#b)" d="M58,49c0-0.553-0.447-1-1-1s-1,0.447-1,1v1c0,0.553,0.447,1,1,1s1-0.447,1-1V49z"></path><linearGradient id="c" x1="6.815" x2="53.25" y1="-.685" y2="45.75" gradientUnits="userSpaceOnUse"><stop offset=".209" stop-color="#ffffff" class="stopColorfbb040 svgShape"></stop><stop offset=".405" stop-color="#ffffff" class="stopColorf18a3c svgShape"></stop><stop offset=".405" stop-color="#ffffff" class="stopColorf18a3c svgShape"></stop><stop offset=".52" stop-color="#ffffff" class="stopColoref773c svgShape"></stop><stop offset=".639" stop-color="#fbfbfb" class="stopColored6c3c svgShape"></stop><stop offset=".765" stop-color="#ffffff" class="stopColored683c svgShape"></stop><stop offset=".905" stop-color="#aba2a2" class="stopColore93e3a svgShape"></stop></linearGradient><path fill="url(#c)" d="M59,53h1c0.553,0,1-0.447,1-1s-0.447-1-1-1h-1c-0.553,0-1,0.447-1,1S58.447,53,59,53z"></path><linearGradient id="d" x1="4.315" x2="50.75" y1="1.815" y2="48.25" gradientUnits="userSpaceOnUse"><stop offset=".209" stop-color="#ffffff" class="stopColorfbb040 svgShape"></stop><stop offset=".405" stop-color="#ffffff" class="stopColorf18a3c svgShape"></stop><stop offset=".405" stop-color="#ffffff" class="stopColorf18a3c svgShape"></stop><stop offset=".52" stop-color="#ffffff" class="stopColoref773c svgShape"></stop><stop offset=".639" stop-color="#fbfbfb" class="stopColored6c3c svgShape"></stop><stop offset=".765" stop-color="#ffffff" class="stopColored683c svgShape"></stop><stop offset=".905" stop-color="#aba2a2" class="stopColore93e3a svgShape"></stop></linearGradient><path fill="url(#d)" d="M57,53c-0.553,0-1,0.447-1,1v1c0,0.553,0.447,1,1,1s1-0.447,1-1v-1C58,53.447,57.553,53,57,53z"></path><linearGradient id="e" x1="-15.685" x2="30.75" y1="21.815" y2="68.25" gradientUnits="userSpaceOnUse"><stop offset=".209" stop-color="#ffffff" class="stopColorfbb040 svgShape"></stop><stop offset=".405" stop-color="#ffffff" class="stopColorf18a3c svgShape"></stop><stop offset=".405" stop-color="#ffffff" class="stopColorf18a3c svgShape"></stop><stop offset=".52" stop-color="#ffffff" class="stopColoref773c svgShape"></stop><stop offset=".639" stop-color="#fbfbfb" class="stopColored6c3c svgShape"></stop><stop offset=".765" stop-color="#ffffff" class="stopColored683c svgShape"></stop><stop offset=".905" stop-color="#aba2a2" class="stopColore93e3a svgShape"></stop></linearGradient><path fill="url(#e)" d="M1,40c0,0.553,0.447,1,1,1h1c0.553,0,1-0.447,1-1s-0.447-1-1-1H2C1.447,39,1,39.447,1,40z"></path><linearGradient id="f" x1="-13.185" x2="33.25" y1="19.315" y2="65.75" gradientUnits="userSpaceOnUse"><stop offset=".209" stop-color="#ffffff" class="stopColorfbb040 svgShape"></stop><stop offset=".405" stop-color="#ffffff" class="stopColorf18a3c svgShape"></stop><stop offset=".405" stop-color="#ffffff" class="stopColorf18a3c svgShape"></stop><stop offset=".52" stop-color="#ffffff" class="stopColoref773c svgShape"></stop><stop offset=".639" stop-color="#fbfbfb" class="stopColored6c3c svgShape"></stop><stop offset=".765" stop-color="#ffffff" class="stopColored683c svgShape"></stop><stop offset=".905" stop-color="#aba2a2" class="stopColore93e3a svgShape"></stop></linearGradient><path fill="url(#f)" d="M6,37c0-0.553-0.447-1-1-1s-1,0.447-1,1v1c0,0.553,0.447,1,1,1s1-0.447,1-1V37z"></path><linearGradient id="g" x1="-13.185" x2="33.25" y1="19.315" y2="65.75" gradientUnits="userSpaceOnUse"><stop offset=".209" stop-color="#ffffff" class="stopColorfbb040 svgShape"></stop><stop offset=".405" stop-color="#ffffff" class="stopColorf18a3c svgShape"></stop><stop offset=".405" stop-color="#ffffff" class="stopColorf18a3c svgShape"></stop><stop offset=".52" stop-color="#ffffff" class="stopColoref773c svgShape"></stop><stop offset=".639" stop-color="#fbfbfb" class="stopColored6c3c svgShape"></stop><stop offset=".765" stop-color="#ffffff" class="stopColored683c svgShape"></stop><stop offset=".905" stop-color="#aba2a2" class="stopColore93e3a svgShape"></stop></linearGradient><path fill="url(#g)" d="M7,41h1c0.553,0,1-0.447,1-1s-0.447-1-1-1H7c-0.553,0-1,0.447-1,1S6.447,41,7,41z"></path><linearGradient id="h" x1="-15.685" x2="30.75" y1="21.815" y2="68.25" gradientUnits="userSpaceOnUse"><stop offset=".209" stop-color="#ffffff" class="stopColorfbb040 svgShape"></stop><stop offset=".405" stop-color="#ffffff" class="stopColorf18a3c svgShape"></stop><stop offset=".405" stop-color="#ffffff" class="stopColorf18a3c svgShape"></stop><stop offset=".52" stop-color="#ffffff" class="stopColoref773c svgShape"></stop><stop offset=".639" stop-color="#fbfbfb" class="stopColored6c3c svgShape"></stop><stop offset=".765" stop-color="#ffffff" class="stopColored683c svgShape"></stop><stop offset=".905" stop-color="#aba2a2" class="stopColore93e3a svgShape"></stop></linearGradient><path fill="url(#h)" d="M5,41c-0.553,0-1,0.447-1,1v1c0,0.553,0.447,1,1,1s1-0.447,1-1v-1C6,41.447,5.553,41,5,41z"></path><linearGradient id="i" x1="11.565" x2="58" y1="-5.435" y2="41" gradientUnits="userSpaceOnUse"><stop offset=".209" stop-color="#ffffff" class="stopColorfbb040 svgShape"></stop><stop offset=".405" stop-color="#ffffff" class="stopColorf18a3c svgShape"></stop><stop offset=".405" stop-color="#ffffff" class="stopColorf18a3c svgShape"></stop><stop offset=".52" stop-color="#ffffff" class="stopColoref773c svgShape"></stop><stop offset=".639" stop-color="#fbfbfb" class="stopColored6c3c svgShape"></stop><stop offset=".765" stop-color="#ffffff" class="stopColored683c svgShape"></stop><stop offset=".905" stop-color="#aba2a2" class="stopColore93e3a svgShape"></stop></linearGradient><path fill="url(#i)" d="M57.5,38c-1.379,0-2.5,1.121-2.5,2.5s1.121,2.5,2.5,2.5s2.5-1.121,2.5-2.5S58.879,38,57.5,38z M57.5,41c-0.275,0-0.5-0.225-0.5-0.5s0.225-0.5,0.5-0.5s0.5,0.225,0.5,0.5S57.775,41,57.5,41z"></path><linearGradient id="j" x1="13.008" x2="59.443" y1="-6.877" y2="39.557" gradientUnits="userSpaceOnUse"><stop offset=".209" stop-color="#ffffff" class="stopColorfbb040 svgShape"></stop><stop offset=".405" stop-color="#ffffff" class="stopColorf18a3c svgShape"></stop><stop offset=".405" stop-color="#ffffff" class="stopColorf18a3c svgShape"></stop><stop offset=".52" stop-color="#ffffff" class="stopColoref773c svgShape"></stop><stop offset=".639" stop-color="#fbfbfb" class="stopColored6c3c svgShape"></stop><stop offset=".765" stop-color="#ffffff" class="stopColored683c svgShape"></stop><stop offset=".905" stop-color="#aba2a2" class="stopColore93e3a svgShape"></stop></linearGradient><path fill="url(#j)" d="M20.293,6.707c0.391,0.391,1.023,0.391,1.414,0l0.735-0.735l-1.379,3.677c-0.193,0.518,0.068,1.094,0.585,1.288C21.765,10.979,21.883,11,22,11c0.404,0,0.786-0.247,0.937-0.648l1.748-4.66l0.827,5.58c0.004,0.028,0.02,0.049,0.026,0.076C25.515,11.563,25.5,11.78,25.5,12c0,3.584,2.916,6.5,6.5,6.5s6.5-2.916,6.5-6.5c0-3.101-2.184-5.698-5.094-6.342l-7.833-5.477c-0.327-0.229-0.759-0.241-1.1-0.031c-0.339,0.21-0.521,0.603-0.463,0.997l0.055,0.373l-3.773,3.773C19.902,5.684,19.902,6.316,20.293,6.707z M32.33,7.533c-0.908,0.974-2.462,2.321-4.61,3.088c0.269-0.84,0.779-1.591,1.494-2.155C30.014,7.834,30.977,7.5,32,7.5C32.113,7.5,32.219,7.525,32.33,7.533z M32,16.5c-2.219,0-4.056-1.618-4.423-3.734c2.015-0.561,3.619-1.559,4.813-2.543c1.158,0.581,2.905,1.407,4.109,1.771c0,0.002,0,0.003,0,0.005C36.5,14.481,34.481,16.5,32,16.5z M35.794,9.602c-0.567-0.243-1.209-0.537-1.86-0.851c0.178-0.197,0.336-0.381,0.468-0.543C34.963,8.565,35.437,9.04,35.794,9.602z M30.111,5.794c-0.767,0.233-1.491,0.593-2.136,1.103c-0.354,0.279-0.669,0.594-0.952,0.931l-0.693-4.678L30.111,5.794z"></path><linearGradient id="k" x1="1.815" x2="48.25" y1="4.315" y2="50.75" gradientUnits="userSpaceOnUse"><stop offset=".209" stop-color="#ffffff" class="stopColorfbb040 svgShape"></stop><stop offset=".405" stop-color="#ffffff" class="stopColorf18a3c svgShape"></stop><stop offset=".405" stop-color="#ffffff" class="stopColorf18a3c svgShape"></stop><stop offset=".52" stop-color="#ffffff" class="stopColoref773c svgShape"></stop><stop offset=".639" stop-color="#fbfbfb" class="stopColored6c3c svgShape"></stop><stop offset=".765" stop-color="#ffffff" class="stopColored683c svgShape"></stop><stop offset=".905" stop-color="#aba2a2" class="stopColore93e3a svgShape"></stop></linearGradient><path fill="url(#k)" d="M7,8H6C5.447,8,5,8.447,5,9s0.447,1,1,1h1c0.553,0,1-0.447,1-1S7.553,8,7,8z"></path><linearGradient id="l" x1="4.315" x2="50.75" y1="1.815" y2="48.25" gradientUnits="userSpaceOnUse"><stop offset=".209" stop-color="#ffffff" class="stopColorfbb040 svgShape"></stop><stop offset=".405" stop-color="#ffffff" class="stopColorf18a3c svgShape"></stop><stop offset=".405" stop-color="#ffffff" class="stopColorf18a3c svgShape"></stop><stop offset=".52" stop-color="#ffffff" class="stopColoref773c svgShape"></stop><stop offset=".639" stop-color="#fbfbfb" class="stopColored6c3c svgShape"></stop><stop offset=".765" stop-color="#ffffff" class="stopColored683c svgShape"></stop><stop offset=".905" stop-color="#aba2a2" class="stopColore93e3a svgShape"></stop></linearGradient><path fill="url(#l)" d="M9,5C8.447,5,8,5.447,8,6v1c0,0.553,0.447,1,1,1s1-0.447,1-1V6C10,5.447,9.553,5,9,5z"></path><linearGradient id="m" x1="4.315" x2="50.75" y1="1.815" y2="48.25" gradientUnits="userSpaceOnUse"><stop offset=".209" stop-color="#ffffff" class="stopColorfbb040 svgShape"></stop><stop offset=".405" stop-color="#ffffff" class="stopColorf18a3c svgShape"></stop><stop offset=".405" stop-color="#ffffff" class="stopColorf18a3c svgShape"></stop><stop offset=".52" stop-color="#ffffff" class="stopColoref773c svgShape"></stop><stop offset=".639" stop-color="#fbfbfb" class="stopColored6c3c svgShape"></stop><stop offset=".765" stop-color="#ffffff" class="stopColored683c svgShape"></stop><stop offset=".905" stop-color="#aba2a2" class="stopColore93e3a svgShape"></stop></linearGradient><path fill="url(#m)" d="M11,10h1c0.553,0,1-0.447,1-1s-0.447-1-1-1h-1c-0.553,0-1,0.447-1,1S10.447,10,11,10z"></path><linearGradient id="n" x1="1.815" x2="48.25" y1="4.315" y2="50.75" gradientUnits="userSpaceOnUse"><stop offset=".209" stop-color="#ffffff" class="stopColorfbb040 svgShape"></stop><stop offset=".405" stop-color="#ffffff" class="stopColorf18a3c svgShape"></stop><stop offset=".405" stop-color="#ffffff" class="stopColorf18a3c svgShape"></stop><stop offset=".52" stop-color="#ffffff" class="stopColoref773c svgShape"></stop><stop offset=".639" stop-color="#fbfbfb" class="stopColored6c3c svgShape"></stop><stop offset=".765" stop-color="#ffffff" class="stopColored683c svgShape"></stop><stop offset=".905" stop-color="#aba2a2" class="stopColore93e3a svgShape"></stop></linearGradient><path fill="url(#n)" d="M8,12c0,0.553,0.447,1,1,1s1-0.447,1-1v-1c0-0.553-0.447-1-1-1s-1,0.447-1,1V12z"></path><linearGradient id="o" x1="22.815" x2="69.25" y1="-16.685" y2="29.75" gradientUnits="userSpaceOnUse"><stop offset=".209" stop-color="#ffffff" class="stopColorfbb040 svgShape"></stop><stop offset=".405" stop-color="#ffffff" class="stopColorf18a3c svgShape"></stop><stop offset=".405" stop-color="#ffffff" class="stopColorf18a3c svgShape"></stop><stop offset=".52" stop-color="#ffffff" class="stopColoref773c svgShape"></stop><stop offset=".639" stop-color="#fbfbfb" class="stopColored6c3c svgShape"></stop><stop offset=".765" stop-color="#ffffff" class="stopColored683c svgShape"></stop><stop offset=".905" stop-color="#aba2a2" class="stopColore93e3a svgShape"></stop></linearGradient><path fill="url(#o)" d="M44,3h-1c-0.553,0-1,0.447-1,1s0.447,1,1,1h1c0.553,0,1-0.447,1-1S44.553,3,44,3z"></path><linearGradient id="p" x1="25.315" x2="71.75" y1="-19.185" y2="27.25" gradientUnits="userSpaceOnUse"><stop offset=".209" stop-color="#ffffff" class="stopColorfbb040 svgShape"></stop><stop offset=".405" stop-color="#ffffff" class="stopColorf18a3c svgShape"></stop><stop offset=".405" stop-color="#ffffff" class="stopColorf18a3c svgShape"></stop><stop offset=".52" stop-color="#ffffff" class="stopColoref773c svgShape"></stop><stop offset=".639" stop-color="#fbfbfb" class="stopColored6c3c svgShape"></stop><stop offset=".765" stop-color="#ffffff" class="stopColored683c svgShape"></stop><stop offset=".905" stop-color="#aba2a2" class="stopColore93e3a svgShape"></stop></linearGradient><path fill="url(#p)" d="M46,0c-0.553,0-1,0.447-1,1v1c0,0.553,0.447,1,1,1s1-0.447,1-1V1C47,0.447,46.553,0,46,0z"></path><linearGradient id="q" x1="25.315" x2="71.75" y1="-19.185" y2="27.25" gradientUnits="userSpaceOnUse"><stop offset=".209" stop-color="#ffffff" class="stopColorfbb040 svgShape"></stop><stop offset=".405" stop-color="#ffffff" class="stopColorf18a3c svgShape"></stop><stop offset=".405" stop-color="#ffffff" class="stopColorf18a3c svgShape"></stop><stop offset=".52" stop-color="#ffffff" class="stopColoref773c svgShape"></stop><stop offset=".639" stop-color="#fbfbfb" class="stopColored6c3c svgShape"></stop><stop offset=".765" stop-color="#ffffff" class="stopColored683c svgShape"></stop><stop offset=".905" stop-color="#aba2a2" class="stopColore93e3a svgShape"></stop></linearGradient><path fill="url(#q)" d="M48,5h1c0.553,0,1-0.447,1-1s-0.447-1-1-1h-1c-0.553,0-1,0.447-1,1S47.447,5,48,5z"></path><linearGradient id="r" x1="22.815" x2="69.25" y1="-16.685" y2="29.75" gradientUnits="userSpaceOnUse"><stop offset=".209" stop-color="#ffffff" class="stopColorfbb040 svgShape"></stop><stop offset=".405" stop-color="#ffffff" class="stopColorf18a3c svgShape"></stop><stop offset=".405" stop-color="#ffffff" class="stopColorf18a3c svgShape"></stop><stop offset=".52" stop-color="#ffffff" class="stopColoref773c svgShape"></stop><stop offset=".639" stop-color="#fbfbfb" class="stopColored6c3c svgShape"></stop><stop offset=".765" stop-color="#ffffff" class="stopColored683c svgShape"></stop><stop offset=".905" stop-color="#aba2a2" class="stopColore93e3a svgShape"></stop></linearGradient><path fill="url(#r)" d="M45,7c0,0.553,0.447,1,1,1s1-0.447,1-1V6c0-0.553-0.447-1-1-1s-1,0.447-1,1V7z"></path><linearGradient id="s" x1="4.924" x2="51.359" y1="1.207" y2="47.641" gradientUnits="userSpaceOnUse"><stop offset=".209" stop-color="#ffffff" class="stopColorfbb040 svgShape"></stop><stop offset=".405" stop-color="#ffffff" class="stopColorf18a3c svgShape"></stop><stop offset=".405" stop-color="#ffffff" class="stopColorf18a3c svgShape"></stop><stop offset=".52" stop-color="#ffffff" class="stopColoref773c svgShape"></stop><stop offset=".639" stop-color="#fbfbfb" class="stopColored6c3c svgShape"></stop><stop offset=".765" stop-color="#ffffff" class="stopColored683c svgShape"></stop><stop offset=".905" stop-color="#aba2a2" class="stopColore93e3a svgShape"></stop></linearGradient><path fill="url(#s)" d="M63.073,3.842c-0.242-0.249-0.598-0.355-0.938-0.278l-1.972,0.447l-1.706-1.084c-0.295-0.188-0.665-0.208-0.978-0.054c-0.312,0.153-0.522,0.459-0.555,0.807l-0.184,2.013L55.185,6.98c-0.269,0.222-0.402,0.567-0.354,0.913c0.05,0.345,0.275,0.639,0.596,0.776l1.172,0.503l-4.087,5.254c-2.362-1.233-5.068-1.7-7.79-1.297c-3.741,0.554-7.036,2.739-8.962,5.87h-7.547c-1.912-3.132-5.205-5.317-8.957-5.869C12.435,12.119,6.1,16.621,5.131,23.163c-0.708,4.788,1.693,9.579,5.991,12.082c-0.57,4.048,1.044,8.102,4.253,10.781c-2.524,5.733-4.107,11.702-4.342,15.854c-0.031,0.551,0.168,1.096,0.546,1.495C11.955,63.772,12.484,64,13.032,64h36.938c0.546,0,1.074-0.227,1.45-0.622c0.377-0.396,0.577-0.938,0.55-1.488c-0.209-4.039-1.628-9.825-3.901-15.437c3.524-2.642,5.384-6.948,4.786-11.201c4.311-2.509,6.705-7.271,5.991-12.083c-0.456-3.075-2.101-5.783-4.632-7.673l3.615-4.648l0.197,0.499c0.128,0.324,0.415,0.559,0.759,0.618c0.057,0.01,0.114,0.015,0.171,0.015c0.285,0,0.561-0.122,0.752-0.341l1.332-1.52l2.018-0.126c0.348-0.021,0.659-0.223,0.822-0.531c0.162-0.308,0.152-0.679-0.025-0.979l-1.034-1.737l0.504-1.957C63.412,4.451,63.316,4.092,63.073,3.842z M45.016,15.108c2.173-0.321,4.335,0.01,6.247,0.925l-0.459,0.59c-0.256-0.101-0.536-0.149-0.826-0.14c-0.56,0.025-1.087,0.286-1.447,0.718l-3.821,4.586l-5.562-2.384c-0.332-0.142-0.675-0.241-1.025-0.308C39.784,16.978,42.254,15.518,45.016,15.108z M7.109,23.456c0.808-5.45,6.117-9.198,11.855-8.347c2.737,0.403,5.179,1.833,6.831,3.91c-1.378,0.099-2.422,1.15-2.97,2.187l-1.879,4.011c-4.457,0.849-7.985,3.902-9.342,7.977C8.339,31.03,6.551,27.238,7.109,23.456z M13.109,35.457c0.552-3.694,3.166-6.671,6.735-7.888l-3.338,7.126c-0.462,0.988-0.06,2.146,0.915,2.636l2.059,1.03c-1.178,1.8-2.258,3.753-3.228,5.762C13.831,41.878,12.634,38.662,13.109,35.457z M13.029,61.992c0.481-8.502,6.952-24.757,14.906-29.79c0.715-0.452,1.071-1.271,0.907-2.085L28.55,28.65c-0.17-0.85-0.835-1.474-1.693-1.59c-0.094-0.013-0.188-0.02-0.279-0.02c-0.75,0-1.428,0.413-1.775,1.103l-4.278,8.503l-2.205-1.104l4.134-8.827c0.092-0.117,0.154-0.252,0.187-0.4l1.975-4.217C24.895,21.569,25.447,21,26,21h11.179c0.408,0,0.807,0.082,1.183,0.242l5.559,2.383c0.807,0.348,1.764,0.118,2.326-0.558l3.821-4.586l1.563,1.564l-5.927,6.775c-0.001-0.001-0.001-0.001-0.001-0.001l-6.38-2.393c-0.513-0.192-1.067-0.17-1.562,0.067c-0.495,0.235-0.863,0.652-1.037,1.173l-1.429,4.283c-0.283,0.854,0.034,1.773,0.789,2.29C43.781,37.513,49.541,53.64,49.971,62L13.029,61.992z M25.27,31.665l1.319-2.622l0.277,1.469C26.325,30.854,25.793,31.24,25.27,31.665z M47.254,44.532c-2.59-5.829-6.078-11.224-10.062-13.949l1.428-4.282L45,28.693c0.462,0.173,0.955,0.145,1.398-0.021c2.431,1.555,4.056,3.996,4.47,6.788C51.371,38.854,49.962,42.293,47.254,44.532z M56.868,23.461c0.565,3.805-1.226,7.579-4.509,9.745c-0.789-2.369-2.317-4.431-4.414-5.91l5.192-5.934c0.69-0.79,0.65-1.989-0.091-2.73l-0.715-0.715l0.658-0.845C55.11,18.646,56.489,20.902,56.868,23.461z M60.501,8.147c-0.266,0.017-0.514,0.139-0.689,0.339l-0.526,0.601l-0.294-0.742c-0.098-0.248-0.29-0.446-0.535-0.552l-0.734-0.315l0.615-0.509c0.206-0.169,0.335-0.414,0.359-0.68l0.072-0.796l0.675,0.429c0.225,0.143,0.5,0.189,0.757,0.132l0.779-0.177L60.78,6.65c-0.066,0.258-0.026,0.531,0.109,0.761l0.409,0.687L60.501,8.147z"></path></svg></g></svg>