<svg id="SvgjsSvg1251" width="288" height="288" xmlns="http://www.w3.org/2000/svg" version="1.1" xmlns:xlink="http://www.w3.org/1999/xlink" xmlns:svgjs="http://svgjs.com/svgjs"><circle id="SvgjsCircle1257" r="144" cx="144" cy="144" fill="#000000" transform="matrix(0.916700005531311,0,0,0.916700005531311,11.995199203491211,11.995199203491211)"></circle><defs id="SvgjsDefs1252"></defs><g id="SvgjsG1253" transform="matrix(0.4652000069618225,0,0,0.4652000069618225,77.01119995117188,77.01119995117188)"><svg xmlns="http://www.w3.org/2000/svg" width="288" height="288" viewBox="0 0 1792 1792"><path d="M1600 1696v64q0 13-9.5 22.5t-22.5 9.5h-1344q-13 0-22.5-9.5t-9.5-22.5v-64q0-13 9.5-22.5t22.5-9.5h1344q13 0 22.5 9.5t9.5 22.5zm-256-1056q0 78-24.5 144t-64 112.5-87.5 88-96 77.5-87.5 72-64 81.5-24.5 96.5q0 96 67 224l-4-1 1 1q-90-41-160-83t-138.5-100-113.5-122.5-72.5-150.5-27.5-184q0-78 24.5-144t64-112.5 87.5-88 96-77.5 87.5-72 64-81.5 24.5-96.5q0-94-66-224l3 1-1-1q90 41 160 83t138.5 100 113.5 122.5 72.5 150.5 27.5 184z" fill="#d20e0e" class="color000 svgShape"></path></svg></g></svg>