<svg id="SvgjsSvg1243" width="288" height="288" xmlns="http://www.w3.org/2000/svg" version="1.1" xmlns:xlink="http://www.w3.org/1999/xlink" xmlns:svgjs="http://svgjs.com/svgjs"><circle id="SvgjsCircle1250" r="144" cx="144" cy="144" fill="#000000" transform="matrix(0.916700005531311,0,0,0.916700005531311,11.995199203491211,11.995199203491211)"></circle><defs id="SvgjsDefs1244"></defs><g id="SvgjsG1245" transform="matrix(0.4652000069618225,0,0,0.4652000069618225,77.10734558105469,76.93675994873047)"><svg xmlns="http://www.w3.org/2000/svg" width="288" height="288" enable-background="new 0 0 90 90" viewBox="0 0 90 90"><path d="M27.64 63.198v3.193c0 5.588 2.027 7.12 9.417 7.12h12.91c7.385 0 9.412-1.532 9.412-7.12v-3.193H27.64zM47.994 28.703c-1.199.006-2.458.833-3.142 2.162-.719 1.396-.719 3.125 0 4.521.626 1.213 1.828 1.74 3.568 2.192l10.328 1.948c.615.12 1.016.704.902 1.313-.12.609-.719 1.005-1.333.891l-6.542-1.084c-3.828 2.178-4.354 6.912-4.354 11.699 0 .62-.511 1.12-1.135 1.12-.631 0-1.141-.5-1.141-1.12 0-4.505.495-9.376 3.781-12.391l-1.011-.193c-2.051-.531-4.024-1.292-5.088-3.359-.063-.12-.109-.24-.161-.359-.595.891-1.432 1.641-2.475 2.161-1.025.517-2.172.771-3.322.771-1.151 0-2.302-.26-3.328-.771-1.271-.64-2.246-1.625-2.828-2.77-.495.505-1.084.953-1.76 1.292-1.027.517-2.178.771-3.328.771-1.152 0-2.303-.254-3.33-.771-.462-.229-.88-.516-1.26-.833l-.021 7.76c-.009 6.104 1.819 8.396 3.579 10.604 1.365 1.713 2.755 3.495 2.989 6.705h31.854c.287-3.371 1.667-5.068 3.25-6.98 1.833-2.213 4.109-4.962 5.615-11.812 1.688-7.62.828-10.208-3.853-11.469L47.994 28.703z" fill="#ffffff" class="color000 svgShape"></path><path d="M25.505 18.693c-.792 0-1.59.177-2.297.532-1.26.63-2.047 1.761-2.145 2.984l-.021 8.844c.063.135.099.287.099.443 0 1.312.839 2.552 2.188 3.234 1.416.708 3.178.708 4.594-.005 1.204-.604 1.97-1.661 2.125-2.817l-.693-11.33c-.379-.552-.899-1.025-1.557-1.354C27.093 18.87 26.301 18.693 25.505 18.693zM58.093 18.376c-.797 0-1.588.177-2.297.532-.733.375-1.328.932-1.708 1.572v6.485c0 .078-.025.146-.042.219l8.531 1.031v-6.074c0-1.312-.842-2.552-2.192-3.233C59.677 18.553 58.885 18.376 58.093 18.376zM36.093 16.402c-.792 0-1.588.176-2.292.531-1.348.677-2.187 1.912-2.192 3.224l.776 12.75c0 1.379.839 2.624 2.187 3.301 1.417.703 3.172.703 4.589-.006 1.35-.677 2.187-1.916 2.187-3.234l-.771-12.796c0-1.318-.838-2.558-2.192-3.24C37.681 16.578 36.885 16.402 36.093 16.402zM47.333 16.402c-.797 0-1.59.176-2.297.531-1.344.677-2.183 1.912-2.183 3.224l.532 8.803c1.14-1.552 2.88-2.491 4.744-2.491l3.688.443v-6.744c0-1.313-.844-2.552-2.192-3.234C48.915 16.578 48.125 16.402 47.333 16.402z" fill="#ffffff" class="color000 svgShape"></path></svg></g></svg>