<svg id="SvgjsSvg1266" width="288" height="288" xmlns="http://www.w3.org/2000/svg" version="1.1" xmlns:xlink="http://www.w3.org/1999/xlink" xmlns:svgjs="http://svgjs.com/svgjs"><circle id="SvgjsCircle1273" r="144" cx="144" cy="144" fill="#000000" transform="matrix(0.916700005531311,0,0,0.916700005531311,11.995199203491211,11.995199203491211)"></circle><defs id="SvgjsDefs1267"></defs><g id="SvgjsG1268" transform="matrix(0.4652000069618225,0,0,0.4652000069618225,77.01119995117188,77.04138946533203)"><svg xmlns="http://www.w3.org/2000/svg" viewBox="0 0 24 24" width="288" height="288"><path d="M12,1a9.01,9.01,0,0,0-9,9V22a1,1,0,0,0,1.8.6L6.829,19.9l1.276,2.552a1,1,0,0,0,1.7.153L12,19.667,14.2,22.6a1,1,0,0,0,1.7-.153L17.171,19.9,19.2,22.6a1,1,0,0,0,.8.4,1,1,0,0,0,1-1V10A9.01,9.01,0,0,0,12,1Zm7,18-1.2-1.6a.991.991,0,0,0-.89-.4,1,1,0,0,0-.8.549l-1.276,2.552L12.8,17.4a1,1,0,0,0-1.6,0L9.171,20.105,7.9,17.553A1,1,0,0,0,7.09,17a.989.989,0,0,0-.89.4L5,19V10a7,7,0,0,1,14,0Z" fill="#ffffff" class="color000 svgShape"></path><path d="M9 9a1 1 0 0 0-1 1v2a1 1 0 0 0 2 0V10A1 1 0 0 0 9 9zM15 9a1 1 0 0 0-1 1v2a1 1 0 0 0 2 0V10A1 1 0 0 0 15 9z" fill="#ffffff" class="color000 svgShape"></path></svg></g></svg>