<svg id="SvgjsSvg1274" width="288" height="288" xmlns="http://www.w3.org/2000/svg" version="1.1" xmlns:xlink="http://www.w3.org/1999/xlink" xmlns:svgjs="http://svgjs.com/svgjs"><circle id="SvgjsCircle1280" r="144" cx="144" cy="144" fill="#000000" transform="matrix(0.916700005531311,0,0,0.916700005531311,11.995199203491211,11.995199203491211)"></circle><defs id="SvgjsDefs1275"></defs><g id="SvgjsG1276" transform="matrix(0.4652000069618225,0,0,0.4652000069618225,77.01119995117188,76.9586181640625)"><svg xmlns="http://www.w3.org/2000/svg" viewBox="0 0 32 32" width="288" height="288"><path d="M2 27H30a1 1 0 0 0 .84-1.54c-1.51-2.33-.85-7.47-.47-9.25a1 1 0 0 0-1.6-1 7.85 7.85 0 0 0-1.42 1.51 51.32 51.32 0 0 1 1-10.52 1 1 0 0 0-.45-1.06 1 1 0 0 0-1.15.07 16 16 0 0 0-3.28 3.61 62.06 62.06 0 0 1 1-6.61A1 1 0 0 0 24 1.16a1 1 0 0 0-1.15 0 20.69 20.69 0 0 0-6.36 8.31A20.59 20.59 0 0 0 10.16 1.2 1 1 0 0 0 9 1.16a1 1 0 0 0-.43 1.06A62.35 62.35 0 0 1 9.64 9.65 16.32 16.32 0 0 0 5.86 5.22 1 1 0 0 0 4.7 5.15a1 1 0 0 0-.45 1.06 50.61 50.61 0 0 1 1 11.29 8.37 8.37 0 0 0-2-2.28 1 1 0 0 0-1.15-.07 1 1 0 0 0-.45 1.06C2 18 2.68 23.12 1.16 25.46A1 1 0 0 0 2 27zM30.93 27.87H1V29a2 2 0 0 0 2 2H29a2 2 0 0 0 2-2V27.86z" fill="#21ef5d" class="color000 svgShape"></path></svg></g></svg>