<svg id="SvgjsSvg1302" width="288" height="288" xmlns="http://www.w3.org/2000/svg" version="1.1" xmlns:xlink="http://www.w3.org/1999/xlink" xmlns:svgjs="http://svgjs.com/svgjs"><circle id="SvgjsCircle1308" r="144" cx="144" cy="144" fill="#000000" transform="matrix(0.916700005531311,0,0,0.916700005531311,11.995199203491211,11.995199203491211)"></circle><defs id="SvgjsDefs1303"></defs><g id="SvgjsG1304" transform="matrix(0.4652000069618225,0,0,0.4652000069618225,77.01099395751953,77.01171875)"><svg xmlns="http://www.w3.org/2000/svg" viewBox="0 0 60 60" width="288" height="288"><path d="M36.37109.07129a1.00325,1.00325,0,0,0-1.13184.2793l-35,41a1.00147,1.00147,0,0,0-.14453,1.0752l8,17A1.00026,1.00026,0,0,0,9,60H44a1.00159,1.00159,0,0,0,.68262-.26855l15-14A1.00271,1.00271,0,0,0,60,45C60,26.72656,46.68848,4.19824,36.37109.07129ZM57.94922,43.09766,41.78992,32.32477l-5.7782-12.5191.90863-17.25848C46.11426,7.52429,57.13757,26.67786,57.94922,43.09766ZM34.02112,19.56482,23.41486,30.17108,4.82141,39.0636,34.846,3.89191ZM24.81152,31.60254l9.88135-9.88135,5.33252,11.55225L42.8783,58H10.67072Zm17.42889,3.42627,15.153,10.102L44.766,56.91681ZM2.32813,42.47357l19.34723-9.253L9.05762,56.77362Z" data-name="Layer 1" fill="#884c1c" class="color000 svgShape"></path></svg></g></svg>