<svg id="SvgjsSvg1022" width="288" height="288" xmlns="http://www.w3.org/2000/svg" version="1.1" xmlns:xlink="http://www.w3.org/1999/xlink" xmlns:svgjs="http://svgjs.com/svgjs"><circle id="SvgjsCircle1029" r="144" cx="144" cy="144" fill="#070707" transform="matrix(0.916700005531311,0,0,0.916700005531311,11.995199203491211,11.995199203491211)"></circle><defs id="SvgjsDefs1023"></defs><g id="SvgjsG1024" transform="matrix(0.4652000069618225,0,0,0.4652000069618225,77.01119995117188,77.01119995117188)"><svg xmlns="http://www.w3.org/2000/svg" width="288" height="288" viewBox="0 0 26 26"><path style="line-height:normal;text-indent:0;text-align:start;text-decoration-line:none;text-decoration-style:solid;text-decoration-color:#000;text-transform:none;block-progression:tb;isolation:auto;mix-blend-mode:normal" fill-rule="evenodd" d="M 13 0 C 5.8262207 0 3.5527137e-015 5.8262 0 13 C 0 20.1738 5.8262207 26 13 26 C 20.173779 26 26 20.1738 26 13 C 26 5.8262 20.173779 0 13 0 z M 13 1 C 19.633339 1 25 6.3667 25 13 C 25 19.6334 19.633339 25 13 25 C 6.3666608 25 1 19.6334 1 13 C 1 6.3667 6.3666608 1 13 1 z M 6.5058594 7 A 0.50004997 0.50004997 0 0 0 6 7.5 L 6 14 C 6 17.8694 9.1306487 21 13 21 C 16.869352 21 20 17.8694 20 14 L 20 7.5 A 0.50004997 0.50004997 0 0 0 19.494141 7 L 16.494141 7.0332031 A 0.50004997 0.50004997 0 0 0 16 7.5351562 L 16 14.011719 C 15.999994 15.675419 14.671545 17 13 17 C 11.328457 17 9.999994 15.675419 10 14.011719 L 10 7.5351562 A 0.50004997 0.50004997 0 0 0 9.5058594 7.0351562 L 6.5058594 7 z M 7 8.0058594 L 9 8.0273438 L 9 9 L 7 9 L 7 8.0058594 z M 19 8.0058594 L 19 9 L 17 9 L 17 8.0273438 L 19 8.0058594 z M 7 10 L 9 10 L 9 14.009766 C 8.999992 16.211966 10.793482 17.998047 13 17.998047 C 15.206519 17.998047 16.999992 16.211866 17 14.009766 L 17 10 L 19 10 L 19 14 C 19 17.3327 16.33265 20 13 20 C 9.6673515 20 7 17.3327 7 14 L 7 10 z " color="#000" font-family="sans-serif" font-weight="400" overflow="visible" fill="#ffffff" class="color000 svgShape"></path></svg></g></svg>