<svg id="SvgjsSvg1059" width="288" height="288" xmlns="http://www.w3.org/2000/svg" version="1.1" xmlns:xlink="http://www.w3.org/1999/xlink" xmlns:svgjs="http://svgjs.com/svgjs"><circle id="SvgjsCircle1065" r="144" cx="144" cy="144" fill="#000000" transform="matrix(0.916700005531311,0,0,0.916700005531311,11.995199203491211,11.995199203491211)"></circle><defs id="SvgjsDefs1060"></defs><g id="SvgjsG1061" transform="matrix(0.4652000069618225,0,0,0.4652000069618225,77.01110076904297,77.0119400024414)"><svg xmlns="http://www.w3.org/2000/svg" viewBox="0 0 64 64" width="288" height="288"><path d="M48.9,24.5635A1,1,0,0,0,48,24H37.58L45.9038,6.4277A.9994.9994,0,0,0,45,5H29a1,1,0,0,0-.9126.5908l-13,29A1,1,0,0,0,16,36h9.7592L21.0229,57.7871a1,1,0,0,0,1.7627.832l26-33A1.0013,1.0013,0,0,0,48.9,24.5635Z" fill="#fff900" class="color000 svgShape"></path></svg></g></svg>