<svg id="SvgjsSvg1001" width="288" height="288" xmlns="http://www.w3.org/2000/svg" version="1.1" xmlns:xlink="http://www.w3.org/1999/xlink" xmlns:svgjs="http://svgjs.com/svgjs"><circle id="SvgjsCircle1014" r="144" cx="144" cy="144" fill="#141415" transform="matrix(0.916700005531311,0,0,0.916700005531311,11.995199203491211,11.995199203491211)"></circle><defs id="SvgjsDefs1002"></defs><g id="SvgjsG1008" transform="matrix(0.4652000069618225,0,0,0.4652000069618225,77.01119995117188,77.01119995117188)"><svg xmlns="http://www.w3.org/2000/svg" width="288" height="288" enable-background="new 0 0 48 48" viewBox="0 0 48 48"><path d="M28,37.997h-8c-0.553,0-1-0.447-1-1v-3.114c-0.325-0.334-0.617-0.7-0.871-1.094C17.392,31.664,17,30.351,17,28.997
		c0-0.756,0.121-1.504,0.36-2.225c0.516-1.51,1.522-2.806,2.837-3.655c2.258-1.465,5.347-1.466,7.606,0.001
		c1.313,0.849,2.32,2.145,2.833,3.646C30.879,27.493,31,28.241,31,28.997c0,1.354-0.392,2.667-1.134,3.798
		c-0.25,0.39-0.541,0.755-0.866,1.088v3.114C29,37.55,28.553,37.997,28,37.997z M21,35.997h6v-2.54c0-0.284,0.121-0.555,0.332-0.744
		c0.328-0.294,0.616-0.634,0.857-1.008C28.722,30.895,29,29.96,29,28.997c0-0.541-0.087-1.077-0.259-1.594
		c-0.365-1.071-1.085-1.999-2.024-2.606c-1.613-1.047-3.821-1.046-5.433-0.001c-0.94,0.608-1.66,1.536-2.028,2.615
		C19.087,27.92,19,28.456,19,28.997c0,0.963,0.278,1.897,0.806,2.702c0.246,0.38,0.534,0.72,0.862,1.014
		C20.879,32.902,21,33.173,21,33.457V35.997z" fill="#fffafa" class="color000 svgShape"></path><path d="M24 36.997c-.553 0-1-.447-1-1v-2c0-.553.447-1 1-1s1 .447 1 1v2C25 36.55 24.553 36.997 24 36.997zM22 29c-.13 0-.26-.03-.38-.08s-.23-.12-.33-.22C21.1 28.51 21 28.26 21 28c0-.271.109-.521.29-.71.37-.37 1.05-.37 1.42 0C22.89 27.479 23 27.729 23 28c0 .26-.101.51-.29.7C22.52 28.89 22.27 29 22 29zM26 29c-.271 0-.521-.11-.71-.3C25.1 28.51 25 28.26 25 28c0-.271.109-.521.29-.71.05-.05.1-.09.149-.12.061-.04.12-.07.181-.101.06-.02.12-.039.18-.05.33-.069.68.04.91.271C26.89 27.479 27 27.729 27 28c0 .26-.101.51-.29.7C26.52 28.89 26.27 29 26 29zM18.31 28.088c-.263 0-.518-.104-.707-.293l-1.368-1.368c-1.104.516-2.459.321-3.361-.582-.564-.564-.874-1.314-.871-2.111.003-.793.314-1.534.876-2.088.506-.513 1.182-.817 1.91-.86.043-.728.348-1.404.87-1.92.545-.552 1.286-.862 2.079-.865.003 0 .006 0 .01 0 .793 0 1.538.309 2.1.87.904.904 1.099 2.26.582 3.362l1.019 1.018c.214.213.319.512.287.813-.031.301-.197.57-.451.734-.939.607-1.659 1.535-2.027 2.614-.111.327-.384.573-.72.65C18.461 28.079 18.385 28.088 18.31 28.088zM16.36 24.138c.256 0 .512.098.707.293l.944.945c.338-.558.751-1.066 1.225-1.508l-.804-.804c-.389-.389-.391-1.019-.004-1.41.377-.381.378-.995.004-1.37C18.249 20.101 18.006 20 17.746 20c-.001 0-.002 0-.003 0-.256.001-.494.101-.671.279-.189.188-.289.426-.29.682-.001.261.101.505.285.688.195.195.293.451.293.707s-.098.513-.292.708c-.391.391-1.024.39-1.415.001-.184-.185-.428-.285-.688-.285-.001 0-.002 0-.003 0-.256.001-.494.101-.671.279-.189.188-.289.425-.29.681-.001.261.101.506.285.69.375.373.988.371 1.371-.005C15.853 24.233 16.106 24.138 16.36 24.138zM30.254 41.995c-.794 0-1.539-.309-2.101-.87-.904-.904-1.099-2.26-.582-3.362l-.278-.278C27.105 37.297 27 37.043 27 36.777v-3.32c0-.284.121-.555.332-.744.328-.295.616-.634.857-1.008.164-.254.434-.42.734-.452.305-.032.6.073.813.287l2.028 2.028c1.101-.517 2.458-.321 3.361.582.564.564.874 1.314.871 2.111-.003.79-.312 1.529-.87 2.083-.515.519-1.189.822-1.916.865-.043.728-.348 1.404-.87 1.92-.545.552-1.286.862-2.079.865C30.26 41.995 30.257 41.995 30.254 41.995zM29 36.363l.567.567c.389.389.391 1.019.004 1.41-.377.381-.378.995-.004 1.37.184.184.427.284.687.284.001 0 .002 0 .003 0 .256-.001.494-.101.671-.279.189-.188.289-.426.29-.682.001-.261-.101-.505-.285-.688-.195-.195-.293-.451-.293-.707s.098-.513.292-.708c.391-.391 1.024-.39 1.415-.001.184.185.428.285.688.285.001 0 .002 0 .003 0 .256-.001.494-.101.671-.279.004-.004.007-.007.01-.01.18-.178.279-.415.28-.671.001-.261-.101-.506-.285-.69-.375-.374-.988-.372-1.371.005-.39.387-1.02.385-1.409-.005l-1.811-1.811c-.04.043-.081.086-.122.129V36.363zM17.746 41.995c-.003 0-.006 0-.009 0-.793-.003-1.534-.313-2.089-.875-.513-.507-.817-1.183-.86-1.91-.729-.043-1.405-.349-1.92-.87-.552-.544-.863-1.285-.866-2.078-.003-.797.307-1.547.871-2.111.903-.903 2.259-1.098 3.361-.582l2.028-2.028c.214-.214.506-.32.813-.287.301.032.57.198.734.452.241.374.529.713.857 1.008C20.879 32.902 21 33.173 21 33.457v3.32c0 .266-.105.52-.293.707l-.278.278c.517 1.103.322 2.458-.582 3.362C19.285 41.687 18.54 41.995 17.746 41.995zM17.36 37.639c0 .256-.098.512-.293.707-.185.184-.286.428-.285.688.001.256.101.494.28.672.187.188.425.288.681.289.001 0 .002 0 .003 0 .26 0 .503-.101.687-.284.374-.375.373-.989-.004-1.37-.387-.392-.385-1.021.004-1.41L19 36.363v-2.48c-.041-.043-.082-.086-.122-.129l-1.811 1.811c-.389.39-1.019.392-1.409.005-.383-.376-.996-.379-1.371-.005-.185.185-.286.43-.285.69.001.256.101.493.28.671.187.188.425.288.681.289.001 0 .002 0 .003 0 .26 0 .504-.101.688-.285.391-.389 1.024-.39 1.415.001C17.263 37.126 17.36 37.383 17.36 37.639zM20 36.777h.01H20zM29.69 28.088c-.075 0-.151-.009-.227-.026-.336-.077-.608-.323-.72-.65-.368-1.079-1.088-2.007-2.027-2.614-.254-.164-.42-.434-.451-.734-.032-.301.073-.6.287-.813l1.019-1.018c-.517-1.103-.322-2.458.582-3.362.562-.562 1.307-.87 2.1-.87.004 0 .007 0 .01 0 .793.003 1.534.313 2.089.875.513.507.817 1.183.86 1.91.729.043 1.405.349 1.92.87.552.544.863 1.285.866 2.078.003.797-.307 1.547-.871 2.111-.903.903-2.26 1.099-3.361.582l-1.368 1.368C30.208 27.984 29.953 28.088 29.69 28.088zM28.764 23.868c.474.441.887.95 1.225 1.508l.944-.945c.39-.389 1.02-.391 1.409-.005.383.376.996.379 1.371.005.185-.185.286-.43.285-.69-.001-.256-.101-.493-.28-.671-.187-.188-.425-.288-.681-.289-.001 0-.002 0-.003 0-.26 0-.504.101-.688.285-.391.389-1.024.39-1.415-.001-.194-.195-.292-.452-.292-.708s.098-.512.293-.707c.185-.184.286-.428.285-.688-.001-.256-.101-.494-.28-.672-.187-.188-.425-.288-.681-.289-.001 0-.002 0-.003 0-.26 0-.503.101-.687.284-.374.375-.373.989.004 1.37.387.392.385 1.021-.004 1.41L28.764 23.868zM24 14C13.564 14 3 11.596 3 7s10.564-7 21-7 21 2.404 21 7S34.436 14 24 14zM24 2C12.229 2 5 4.912 5 7s7.229 5 19 5 19-2.912 19-5S35.771 2 24 2z" fill="#fffafa" class="color000 svgShape"></path><path d="M24,48c-10.436,0-21-2.404-21-7V7c0-0.553,0.447-1,1-1s1,0.447,1,1c0,2.088,7.229,5,19,5s19-2.912,19-5
		c0-0.553,0.447-1,1-1s1,0.447,1,1v34C45,45.596,34.436,48,24,48z M5,10.169V41c0,2.088,7.229,5,19,5s19-2.912,19-5V10.169
		C39.448,12.694,31.689,14,24,14S8.552,12.694,5,10.169z" fill="#fffafa" class="color000 svgShape"></path></svg></g></svg>