<svg id="SvgjsSvg1341" width="288" height="288" xmlns="http://www.w3.org/2000/svg" version="1.1" xmlns:xlink="http://www.w3.org/1999/xlink" xmlns:svgjs="http://svgjs.com/svgjs"><circle id="SvgjsCircle1352" r="144" cx="144" cy="144" fill="#060606" transform="matrix(0.916700005531311,0,0,0.916700005531311,11.995199203491211,11.995199203491211)"></circle><defs id="SvgjsDefs1342"></defs><g id="SvgjsG1343" transform="matrix(0.6399999856948853,0,0,0.6399999856948853,51.83848571777344,51.83845138549805)"><svg xmlns="http://www.w3.org/2000/svg" width="288" height="288" viewBox="0 0 32 32"><g transform="translate(0 -1020.362)" fill="#66ccff" class="color000 svgShape"><path fill="#ffffff" fill-rule="evenodd" style="line-height:normal;text-indent:0;text-align:start;text-decoration-line:none;text-decoration-style:solid;text-decoration-color:#000;text-transform:none;block-progression:tb;white-space:normal;isolation:auto;mix-blend-mode:normal;solid-color:#000;solid-opacity:1" d="M 15.984375,1022.3613 A 1.0000999,1.0000999 0 0 0 15,1023.377 l 0,25.9707 a 1.0000999,1.0000999 0 1 0 2,0 l 0,-25.9707 a 1.0000999,1.0000999 0 0 0 -1.015625,-1.0157 z" color="#000" enable-background="accumulate" font-family="sans-serif" font-weight="400" overflow="visible" class="colord8d7dc svgShape"></path><path fill="#ffffff" fill-rule="evenodd" style="line-height:normal;text-indent:0;text-align:start;text-decoration-line:none;text-decoration-style:solid;text-decoration-color:#000;text-transform:none;block-progression:tb;white-space:normal;isolation:auto;mix-blend-mode:normal;solid-color:#000;solid-opacity:1" d="M13.017578 1023.3691a1.0000999 1.0000999 0 00-.552734 1.8379l2.976562 2a1.0000999 1.0000999 0 001.117188 0l2.976562-2a1.0005047 1.0005047 0 10-1.117187-1.6601L16 1025.1719l-2.417969-1.625a1.0000999 1.0000999 0 00-.564453-.1778zM15.992188 1045.3398a1.0000999 1.0000999 0 00-.550782.17l-2.976562 2.0019a1.0005462 1.0005462 0 101.117187 1.6602L16 1047.5449l2.417969 1.627a1.0005462 1.0005462 0 101.117187-1.6602l-2.976562-2.0019a1.0000999 1.0000999 0 00-.566406-.17zM27.289062 1028.8691a1.0000999 1.0000999 0 00-.542968.1407l-22.4921878 12.9863a1.0000999 1.0000999 0 101 1.7305l22.4921878-12.9844a1.0000999 1.0000999 0 00-.457032-1.8731z" color="#000" enable-background="accumulate" font-family="sans-serif" font-weight="400" overflow="visible" class="colord8d7dc svgShape"></path><path fill="#ffffff" fill-rule="evenodd" style="line-height:normal;text-indent:0;text-align:start;text-decoration-line:none;text-decoration-style:solid;text-decoration-color:#000;text-transform:none;block-progression:tb;white-space:normal;isolation:auto;mix-blend-mode:normal;solid-color:#000;solid-opacity:1" d="M24.841797 1026.7793a1.0000999 1.0000999 0 00-.951172.9453l-.244141 3.5781a1.0000999 1.0000999 0 00.558594.9668l3.220703 1.5782a1.0001659 1.0001659 0 10.878907-1.7969l-2.617188-1.2813.199219-2.9082a1.0000999 1.0000999 0 00-1.044922-1.082zM4.0917969 1038.7695a1.0000999 1.0000999 0 00-.3964844 1.9043l2.6171875 1.2813-.1992188 2.9082A1.0003846 1.0003846 0 108.109375 1045l.2441406-3.5781a1.0000999 1.0000999 0 00-.5585937-.9668l-3.2207031-1.5781a1.0000999 1.0000999 0 00-.4824219-.1075zM4.6796875 1028.8574a1.0000999 1.0000999 0 00-.4257813 1.8711l22.4921878 12.9863a1.0001512 1.0001512 0 101-1.7324L5.2539062 1028.9961a1.0000999 1.0000999 0 00-.5742187-.1387z" color="#000" enable-background="accumulate" font-family="sans-serif" font-weight="400" overflow="visible" class="colord8d7dc svgShape"></path><path fill="#ffffff" fill-rule="evenodd" style="line-height:normal;text-indent:0;text-align:start;text-decoration-line:none;text-decoration-style:solid;text-decoration-color:#000;text-transform:none;block-progression:tb;white-space:normal;isolation:auto;mix-blend-mode:normal;solid-color:#000;solid-opacity:1" d="M27.878906 1038.7695a1.0000999 1.0000999 0 00-.453125.1075l-3.220703 1.5781a1.0000999 1.0000999 0 00-.558594.9668L23.890625 1045a1.0003847 1.0003847 0 101.996094-.1367l-.199219-2.9082 2.617188-1.2813a1.0000999 1.0000999 0 00-.425782-1.9043zM7.1269531 1026.7793a1.0000999 1.0000999 0 00-1.0136719 1.082l.1992188 2.9082-2.6171875 1.2813a1.0001657 1.0001657 0 10.8789063 1.7969l3.2207031-1.5782a1.0000999 1.0000999 0 00.5585937-.9668l-.2441406-3.5781a1.0000999 1.0000999 0 00-.9824219-.9453z" color="#000" enable-background="accumulate" font-family="sans-serif" font-weight="400" overflow="visible" class="colord8d7dc svgShape"></path><path fill="#ffffff" style="line-height:normal;text-indent:0;text-align:start;text-decoration-line:none;text-decoration-style:solid;text-decoration-color:#000;text-transform:none;block-progression:tb;white-space:normal;isolation:auto;mix-blend-mode:normal;solid-color:#000;solid-opacity:1" d="m 20.324084,1028.4113 a 1.0014617,0.99874015 0 0 0 -0.866887,0.1531 l -3.456419,2.5243 -3.458042,-2.5249 a 1.0014617,0.99874015 0 0 0 -1.584948,0.9156 l 0.46091,4.2445 -3.920288,1.7232 a 1.0014617,0.99874015 0 0 0 0.00262,1.8285 l 3.9199411,1.7249 -0.465798,4.2468 a 1.0014617,0.99874015 0 0 0 1.587524,0.9131 l 3.45642,-2.5243 3.458041,2.5249 a 1.0014617,0.99874015 0 0 0 1.584949,-0.9157 l -0.46091,-4.2445 3.920287,-1.7231 a 1.0014617,0.99874015 0 0 0 -0.0026,-1.8285 l -3.919941,-1.7249 0.465799,-4.2469 a 1.0014617,0.99874015 0 0 0 -0.720638,-1.0661 z m -1.517009,3.1042 -0.299065,2.7215 a 1.0014617,0.99874015 0 0 0 0.593947,1.0207 l 2.511889,1.1061 -2.511183,1.1029 a 1.0014617,0.99874015 0 0 0 -0.591353,1.0234 l 0.298516,2.7234 -2.219318,-1.6205 a 1.0014617,0.99874015 0 0 0 -1.180712,-10e-5 l -2.216972,1.6164 0.299064,-2.7216 a 1.0014617,0.99874015 0 0 0 -0.593996,-1.0205 l -2.511839,-1.1062 2.511133,-1.1028 a 1.0014617,0.99874015 0 0 0 0.591403,-1.0235 l -0.298517,-2.7234 2.219318,1.6205 a 1.0014617,0.99874015 0 0 0 1.180712,10e-5 l 2.216973,-1.6164 z" color="#000" enable-background="accumulate" font-family="sans-serif" font-weight="400" overflow="visible" class="colord8d7dc svgShape"></path></g></svg></g></svg>