<svg id="SvgjsSvg1281" width="288" height="288" xmlns="http://www.w3.org/2000/svg" version="1.1" xmlns:xlink="http://www.w3.org/1999/xlink" xmlns:svgjs="http://svgjs.com/svgjs"><circle id="SvgjsCircle1287" r="144" cx="144" cy="144" fill="#000000" transform="matrix(0.916700005531311,0,0,0.916700005531311,11.995199203491211,11.995199203491211)"></circle><defs id="SvgjsDefs1282"></defs><g id="SvgjsG1283" transform="matrix(0.4652000069618225,0,0,0.4652000069618225,77.01119995117188,77.01079559326172)"><svg xmlns="http://www.w3.org/2000/svg" enable-background="new 0 0 512 512" viewBox="0 0 512 512" width="288" height="288"><path fill="none" stroke="#ffffff" stroke-linecap="round" stroke-linejoin="round" stroke-miterlimit="2.613" stroke-width="7.999" d="
	M128,280c32-16,24.4-35.7,36-52c6.3-8.8,39.4-14.3,40-10.1c4.2,28,0.9,69.4,36,78.1c5.2,20,20,64,24,96c-18.5,8-56,4-68,12
	c-4.9,3.3-20.9,8-40,8c-25.1,0-48-12-56-20C104.7,377.1,120,296,128,280 M384,212c-4,4-40,12-68,12 M244,168c20,8,55.4,12,76,12
	 M216,278.1c5.1-14.9,22.2-100,28-110.1c30.8,0,32-40,36-64c6.2-1.9,23.3-3.9,40-4c19.4-0.1,38.2,2.6,40,12
	c2.5,13.6,15.3,94.2,24,100c12.7,8.5,13.2,15.1,14.6,28L412,364c-3.6,4-108.5,24-150.6,12 M240,296c-4,4-24,8-32,8 M128,280
	c12,4,44,8,56,8" class="colorStroke000 svgStroke"></path></svg></g></svg>