<svg id="SvgjsSvg1030" width="288" height="288" xmlns="http://www.w3.org/2000/svg" version="1.1" xmlns:xlink="http://www.w3.org/1999/xlink" xmlns:svgjs="http://svgjs.com/svgjs"><circle id="SvgjsCircle1036" r="144" cx="144" cy="144" fill="#060606" transform="matrix(0.916700005531311,0,0,0.916700005531311,11.995199203491211,11.995199203491211)"></circle><defs id="SvgjsDefs1031"></defs><g id="SvgjsG1032" transform="matrix(0.4652000069618225,0,0,0.4652000069618225,77.01119232177734,77.01409149169922)"><svg xmlns="http://www.w3.org/2000/svg" viewBox="0 0 20 20" width="288" height="288"><path d="M9.882 9.093c-.511 4.115-3.121 4.847-3.121 7.708C6.761 18.567 8.244 20 10 20c1.756 0 3.238-1.434 3.238-3.199 0-2.861-2.61-3.593-3.121-7.708-.016-.123-.219-.123-.235 0zm-5.999-9C3.372 4.208.762 4.939.762 7.801.762 9.566 2.244 11 4 11s3.238-1.434 3.238-3.199c0-2.861-2.61-3.593-3.121-7.708-.015-.123-.219-.123-.234 0zm12 0c-.511 4.115-3.121 4.847-3.121 7.708C12.762 9.566 14.244 11 16 11s3.238-1.434 3.238-3.199c0-2.861-2.61-3.593-3.121-7.708-.016-.123-.219-.123-.234 0z" fill="#5abdfb" class="color000 svgShape"></path></svg></g></svg>