<svg id="SvgjsSvg1258" width="288" height="288" xmlns="http://www.w3.org/2000/svg" version="1.1" xmlns:xlink="http://www.w3.org/1999/xlink" xmlns:svgjs="http://svgjs.com/svgjs"><circle id="SvgjsCircle1265" r="144" cx="144" cy="144" fill="#000000" transform="matrix(0.916700005531311,0,0,0.916700005531311,11.995199203491211,11.995199203491211)"></circle><defs id="SvgjsDefs1259"></defs><g id="SvgjsG1260" transform="matrix(0.4652000069618225,0,0,0.4652000069618225,76.9998550415039,77.01422119140625)"><svg xmlns="http://www.w3.org/2000/svg" enable-background="new 0 0 24 24" viewBox="0 0 24 24" width="288" height="288"><path d="M8.12,21c-0.098,0-0.19-0.028-0.271-0.079c-0.091,0.059-0.199,0.088-0.308,0.078c-1.458-0.112-1.901-0.395-2.56-0.885c-0.119-0.089-0.213-0.241-0.231-0.394c-0.484-0.211-1.154-1.229-1.309-1.722c-0.081-0.261,0.062-0.538,0.32-0.624l1.599-0.528c-0.983-0.564-2.454-1.587-3.78-3.223c-1.051-1.353-1.228-1.793-1.466-2.708c-0.045-0.175,0.008-0.358,0.133-0.481c-0.04-0.047-0.075-0.094-0.105-0.14c-0.041-0.062-0.068-0.133-0.078-0.207C0.049,9.975-0.084,8.966,0.073,8.312c0.03-0.124,0.105-0.229,0.208-0.298C0.254,7.973,0.228,7.931,0.202,7.889C0.152,7.808,0.128,7.713,0.13,7.618c0.004-0.145,0.048-1.439,0.555-2.261c0.09-0.146,0.247-0.234,0.418-0.237c0.022,0.001,0.046,0,0.068,0.004c-0.035-0.216-0.04-0.354-0.041-0.37C1.127,4.655,1.154,4.557,1.207,4.473C1.65,3.771,2,3.336,2.308,3.103C2.395,3.036,2.501,3,2.61,3c0.381,0,0.477,0.34,0.513,0.468c0.46,1.632,2.333,7.139,7.138,9.504c0.677,0.327,1.191,0.553,1.665,0.73c0.259,0.097,0.39,0.385,0.292,0.644c-0.098,0.258-0.389,0.391-0.644,0.292c-0.503-0.188-1.043-0.425-1.752-0.768c-4.531-2.23-6.604-6.85-7.43-9.371C2.317,4.604,2.234,4.725,2.144,4.865c0.039,0.292,0.182,0.994,0.691,1.647c0.141,0.181,0.141,0.435-0.001,0.616C2.693,7.31,2.448,7.373,2.236,7.276C2.21,7.266,1.76,7.06,1.271,6.588C1.191,6.925,1.152,7.27,1.137,7.495c0.441,0.659,1.23,1.377,1.239,1.384c0.163,0.148,0.21,0.385,0.116,0.584c-0.093,0.198-0.299,0.31-0.524,0.282C1.617,9.694,1.285,9.549,1.005,9.386c0.008,0.166,0.021,0.319,0.034,0.437c0.278,0.307,1.082,0.813,1.588,1.088c0.206,0.11,0.307,0.349,0.244,0.573c-0.062,0.225-0.273,0.406-0.504,0.365c-0.336-0.015-0.639-0.069-0.904-0.14c0.175,0.32,0.441,0.701,0.901,1.294c2.027,2.5,4.462,3.462,4.486,3.471c0.196,0.076,0.324,0.269,0.319,0.479c-0.006,0.211-0.143,0.396-0.343,0.462l-2.211,0.731c0.15,0.238,0.336,0.458,0.465,0.595c0.462-0.077,0.942-0.364,0.948-0.368c0.186-0.112,0.425-0.092,0.59,0.05c0.164,0.145,0.217,0.378,0.129,0.578c-0.135,0.306-0.34,0.536-0.553,0.706c0.285,0.135,0.629,0.221,1.209,0.276c0.314-0.347,0.39-0.846,0.391-0.852c0.034-0.238,0.233-0.42,0.475-0.43c0.242,0.005,0.454,0.151,0.508,0.387c0.063,0.277,0.078,0.525,0.063,0.74c0.109-0.05,0.214-0.106,0.323-0.167c0.871-0.597,0.995-1.468,1-1.504c0.018-0.134,0.088-0.256,0.196-0.337c0.106-0.08,0.244-0.117,0.376-0.096c5.077,0.778,8.316-0.293,9.938-1.119c-0.02-0.012-0.034-0.021-0.044-0.028c-0.172-0.121-0.249-0.338-0.193-0.54c0.017-0.062,0.045-0.118,0.081-0.167c-2.371,0.11-4.196-0.007-5.907-0.351c-0.271-0.055-0.446-0.318-0.392-0.589s0.323-0.447,0.589-0.392c2.267,0.454,4.77,0.489,8.644,0.112c0.205-0.013,0.408,0.093,0.499,0.282s0.054,0.415-0.094,0.565c-0.016,0.016-0.396,0.403-0.776,0.676c-0.19,0.104-0.396,0.184-0.611,0.248c-0.004,0.152-0.079,0.299-0.208,0.392c-0.969,0.699-4.598,2.86-11.229,1.964c-0.158,0.465-0.508,1.163-1.268,1.69c-0.015,0.011-0.106,0.062-0.122,0.07C9.286,20.735,8.841,20.978,8.136,21C8.131,21,8.125,21,8.12,21z" fill="#f7f7f7" class="color000 svgShape"></path><path d="M12.152,16.723c-0.124,0-0.248-0.046-0.344-0.138c-0.038-0.035-0.925-0.895-0.654-2.234c0.203-0.687,0.521-0.934,0.614-0.993c0.115-0.076,0.258-0.098,0.389-0.067c0.276,0.066,0.645,0.116,1.066,0.145l0.384,0.011c0.28,0.006,0.483,0.01,0.733,0.069c0.228,0.032,0.477,0.139,0.653,0.297c0.225,0.031,0.538,0.109,0.762,0.313c0.259,0.207,0.455,0.723,0.283,1.159c-0.082,0.211-0.3,0.337-0.523,0.313c-0.14-0.017-0.262-0.091-0.342-0.198c-0.025-0.001-0.052-0.001-0.076-0.001c-0.272,0.134-0.955,0.451-1.503,0.533c0.036,0.004-0.068,0.031-0.343,0.146c-0.297,0.12-0.65,0.411-0.762,0.513C12.395,16.679,12.273,16.723,12.152,16.723z M12.231,14.326c-0.034,0.063-0.073,0.15-0.107,0.267c-0.075,0.374,0.017,0.689,0.128,0.912c0.18-0.128,0.396-0.262,0.618-0.352c0.429-0.181,0.531-0.201,0.531-0.201c0.299-0.047,0.677-0.19,0.968-0.318c-0.025-0.026-0.048-0.057-0.066-0.089c-0.03-0.017-0.082-0.039-0.149-0.05c-0.188-0.042-0.323-0.045-0.565-0.05l-0.42-0.012C12.815,14.409,12.503,14.373,12.231,14.326z M15.31,15.413c0.006,0.001,0.011,0.002,0.016,0.003C15.32,15.415,15.315,15.414,15.31,15.413z M14.234,14.295L14.234,14.295L14.234,14.295z" fill="#f7f7f7" class="color000 svgShape"></path></svg></g></svg>